<svg width="376" height="292" viewBox="0 0 376 292" fill="none" xmlns="http://www.w3.org/2000/svg">
<path d="M48.72 71.36H53.2C57.68 71.36 61.4133 72.8267 64.4 75.76C67.44 78.64 68.96 82.24 68.96 86.56C68.96 90.88 67.44 94.5333 64.4 97.52C61.36 100.453 57.6 101.92 53.12 101.92H32.24V97.6H53.04C56.2933 97.6 59.0133 96.56 61.2 94.48C63.3867 92.3467 64.48 89.7067 64.48 86.56C64.48 83.4133 63.3867 80.7733 61.2 78.64C59.0133 76.5067 56.2933 75.44 53.04 75.44H42.24V72.4L60.4 52.72H32.24V48.4H66.8V51.68L48.72 71.36ZM102.801 71.04L78.5613 97.68H108.241V102H72.0812V98.72L99.6813 68.16C101.708 65.9733 102.721 63.44 102.721 60.56C102.721 58.2133 101.895 56.32 100.241 54.88C98.5879 53.44 96.4546 52.72 93.8413 52.72H72.9612V48.4H94.0012C97.8946 48.4 101.068 49.52 103.521 51.76C105.975 54 107.201 56.9067 107.201 60.48C107.201 64.32 105.735 67.84 102.801 71.04ZM120.127 71.04H135.327C140.074 71.04 143.94 72.56 146.927 75.6C149.967 78.5867 151.487 82.2133 151.487 86.48C151.487 90.8 149.967 94.4533 146.927 97.44C143.94 100.427 140.074 101.92 135.327 101.92H115.567V97.6H135.247C138.607 97.6 141.38 96.5333 143.567 94.4C145.754 92.2667 146.847 89.6533 146.847 86.56C146.9 83.4133 145.834 80.7733 143.647 78.64C141.46 76.4533 138.66 75.36 135.247 75.36H115.327L118.687 48.4H147.727V52.72H122.367L120.127 71.04ZM235.547 48.4V102H231.067V55.28L209.467 102H205.467L183.947 55.52V102H179.467V48.4H185.547L207.547 96.08L229.627 48.4H235.547ZM267.543 74.64H283.463V78.8H267.463V94.72H263.303V78.8H247.303V74.64H263.383V58.56H267.543V74.64Z" fill="white"/>
<path d="M43.82 232.96V233.02C44.4733 233.287 44.98 233.707 45.34 234.28C45.7133 234.84 45.9 235.487 45.9 236.22C45.9 237.287 45.5333 238.187 44.8 238.92C44.0667 239.64 43.1467 240 42.04 240H34.98V226.6H41.78C42.82 226.6 43.6933 226.933 44.4 227.6C45.12 228.253 45.48 229.1 45.48 230.14C45.48 231.447 44.9267 232.387 43.82 232.96ZM41.72 228.1H36.52V232.4H41.72C42.3467 232.4 42.8733 232.2 43.3 231.8C43.7267 231.387 43.94 230.873 43.94 230.26C43.94 229.633 43.7267 229.12 43.3 228.72C42.8733 228.307 42.3467 228.1 41.72 228.1ZM36.52 238.48H42.04C42.7067 238.48 43.2533 238.267 43.68 237.84C44.12 237.413 44.34 236.873 44.34 236.22C44.34 235.54 44.1133 234.98 43.66 234.54C43.22 234.1 42.66 233.88 41.98 233.88H36.52V238.48ZM57.2448 233.66H55.6848C55.4582 232.98 55.0382 232.42 54.4248 231.98C53.8248 231.54 53.1115 231.32 52.2848 231.32C51.2048 231.32 50.3182 231.68 49.6248 232.4C48.9315 233.12 48.5848 234.007 48.5848 235.06C48.5848 236.113 48.9315 237.007 49.6248 237.74C50.3182 238.46 51.2048 238.82 52.2848 238.82C53.0982 238.82 53.8115 238.6 54.4248 238.16C55.0382 237.707 55.4582 237.127 55.6848 236.42H57.2448C57.0048 237.54 56.4248 238.46 55.5048 239.18C54.5982 239.9 53.5248 240.26 52.2848 240.26C50.7648 240.26 49.5182 239.76 48.5448 238.76C47.5715 237.76 47.0848 236.527 47.0848 235.06C47.0848 233.593 47.5715 232.367 48.5448 231.38C49.5182 230.38 50.7648 229.88 52.2848 229.88C53.5248 229.88 54.5982 230.233 55.5048 230.94C56.4248 231.647 57.0048 232.553 57.2448 233.66ZM63.2989 229.88C64.8456 229.88 66.0922 230.42 67.0389 231.5C67.9856 232.58 68.4122 233.947 68.3189 235.6H59.7789C59.8456 236.52 60.2122 237.287 60.8789 237.9C61.5456 238.513 62.3789 238.82 63.3789 238.82C64.1122 238.82 64.7656 238.653 65.3389 238.32C65.9122 237.973 66.3256 237.513 66.5789 236.94H68.1389C67.8056 237.953 67.2056 238.76 66.3389 239.36C65.4722 239.96 64.4656 240.26 63.3189 240.26C61.7989 240.26 60.5656 239.76 59.6189 238.76C58.6722 237.76 58.1989 236.533 58.1989 235.08C58.1989 233.627 58.6789 232.4 59.6389 231.4C60.5989 230.387 61.8189 229.88 63.2989 229.88ZM65.5789 232.14C64.9522 231.593 64.1789 231.32 63.2589 231.32C62.3389 231.32 61.5589 231.6 60.9189 232.16C60.2922 232.707 59.9256 233.407 59.8189 234.26H66.7189C66.5856 233.393 66.2056 232.687 65.5789 232.14ZM77.4139 230.14V231.58H71.4339V240H69.9339V230.14H77.4139ZM82.6992 240.26C81.1526 240.26 79.8792 239.76 78.8792 238.76C77.8926 237.747 77.3992 236.513 77.3992 235.06C77.3992 233.593 77.8926 232.367 78.8792 231.38C79.8659 230.38 81.1392 229.88 82.6992 229.88C84.2326 229.88 85.4859 230.38 86.4592 231.38C87.4326 232.367 87.9192 233.593 87.9192 235.06C87.9192 236.513 87.4259 237.747 86.4392 238.76C85.4659 239.76 84.2192 240.26 82.6992 240.26ZM82.6992 238.82C83.7926 238.82 84.6859 238.453 85.3792 237.72C86.0726 236.987 86.4192 236.1 86.4192 235.06C86.4192 234.007 86.0726 233.12 85.3792 232.4C84.6859 231.68 83.7926 231.32 82.6992 231.32C81.5792 231.32 80.6659 231.68 79.9592 232.4C79.2659 233.12 78.9192 234.007 78.9192 235.06C78.9192 236.113 79.2659 237.007 79.9592 237.74C80.6659 238.46 81.5792 238.82 82.6992 238.82ZM103.44 233.66H101.88C101.653 232.98 101.233 232.42 100.62 231.98C100.02 231.54 99.3068 231.32 98.4802 231.32C97.4002 231.32 96.5135 231.68 95.8202 232.4C95.1268 233.12 94.7802 234.007 94.7802 235.06C94.7802 236.113 95.1268 237.007 95.8202 237.74C96.5135 238.46 97.4002 238.82 98.4802 238.82C99.2935 238.82 100.007 238.6 100.62 238.16C101.233 237.707 101.653 237.127 101.88 236.42H103.44C103.2 237.54 102.62 238.46 101.7 239.18C100.793 239.9 99.7202 240.26 98.4802 240.26C96.9602 240.26 95.7135 239.76 94.7402 238.76C93.7668 237.76 93.2802 236.527 93.2802 235.06C93.2802 233.593 93.7668 232.367 94.7402 231.38C95.7135 230.38 96.9602 229.88 98.4802 229.88C99.7202 229.88 100.793 230.233 101.7 230.94C102.62 231.647 103.2 232.553 103.44 233.66ZM113.761 230.14V238.56H115.461V242.62H113.981V240H105.201V242.62H103.721V238.56H103.801C104.028 238.56 104.208 238.547 104.341 238.52C104.475 238.493 104.641 238.427 104.841 238.32C105.055 238.213 105.221 238.02 105.341 237.74C105.461 237.46 105.541 237.093 105.581 236.64C105.621 236.08 105.641 233.913 105.641 230.14H113.761ZM106.541 238.56H112.261V231.58H107.101C107.101 233.727 107.075 235.367 107.021 236.5C106.981 237.353 106.821 238.04 106.541 238.56ZM120.843 229.88C122.389 229.88 123.636 230.42 124.583 231.5C125.529 232.58 125.956 233.947 125.863 235.6H117.323C117.389 236.52 117.756 237.287 118.423 237.9C119.089 238.513 119.923 238.82 120.923 238.82C121.656 238.82 122.309 238.653 122.883 238.32C123.456 237.973 123.869 237.513 124.123 236.94H125.683C125.349 237.953 124.749 238.76 123.883 239.36C123.016 239.96 122.009 240.26 120.863 240.26C119.343 240.26 118.109 239.76 117.163 238.76C116.216 237.76 115.743 236.533 115.743 235.08C115.743 233.627 116.223 232.4 117.183 231.4C118.143 230.387 119.363 229.88 120.843 229.88ZM123.123 232.14C122.496 231.593 121.723 231.32 120.803 231.32C119.883 231.32 119.103 231.6 118.463 232.16C117.836 232.707 117.469 233.407 117.363 234.26H124.263C124.129 233.393 123.749 232.687 123.123 232.14ZM136.522 230.14V240H135.022V231.58H129.802C129.802 234.1 129.776 235.793 129.722 236.66C129.696 237.193 129.622 237.667 129.502 238.08C129.396 238.493 129.242 238.82 129.042 239.06C128.842 239.287 128.649 239.473 128.462 239.62C128.289 239.767 128.062 239.873 127.782 239.94C127.516 239.993 127.302 240.027 127.142 240.04C126.996 240.053 126.802 240.06 126.562 240.06H126.302V238.54H126.502C126.676 238.54 126.809 238.54 126.902 238.54C127.009 238.527 127.149 238.487 127.322 238.42C127.509 238.353 127.656 238.26 127.762 238.14C127.869 238.007 127.969 237.813 128.062 237.56C128.169 237.307 128.236 237 128.262 236.64C128.276 236.493 128.302 234.327 128.342 230.14H136.522ZM143.427 240.26C141.88 240.26 140.607 239.76 139.607 238.76C138.62 237.747 138.127 236.513 138.127 235.06C138.127 233.593 138.62 232.367 139.607 231.38C140.593 230.38 141.867 229.88 143.427 229.88C144.96 229.88 146.213 230.38 147.187 231.38C148.16 232.367 148.647 233.593 148.647 235.06C148.647 236.513 148.153 237.747 147.167 238.76C146.193 239.76 144.947 240.26 143.427 240.26ZM143.427 238.82C144.52 238.82 145.413 238.453 146.107 237.72C146.8 236.987 147.147 236.1 147.147 235.06C147.147 234.007 146.8 233.12 146.107 232.4C145.413 231.68 144.52 231.32 143.427 231.32C142.307 231.32 141.393 231.68 140.687 232.4C139.993 233.12 139.647 234.007 139.647 235.06C139.647 236.113 139.993 237.007 140.687 237.74C141.393 238.46 142.307 238.82 143.427 238.82ZM156.493 234.18H156.673C157.42 234.18 157.993 234.38 158.393 234.78C158.806 235.167 159.013 235.733 159.013 236.48V240H157.513V236.68C157.513 235.96 157.146 235.6 156.413 235.6H151.733V240H150.233V230.14H151.733V234.18H154.793L157.473 230.14H159.133L156.493 234.18ZM41.9 255.82V255.88C42.4333 256.08 42.84 256.393 43.12 256.82C43.4 257.233 43.54 257.707 43.54 258.24C43.54 258.987 43.2667 259.633 42.72 260.18C42.1867 260.727 41.48 261 40.6 261H34.58V251.14H40.26C41.14 251.14 41.8333 251.393 42.34 251.9C42.86 252.393 43.12 253 43.12 253.72C43.12 254.68 42.7133 255.38 41.9 255.82ZM40.22 252.58H36.08V255.3H40.14C40.58 255.3 40.9333 255.167 41.2 254.9C41.48 254.633 41.62 254.307 41.62 253.92C41.62 253.547 41.4867 253.233 41.22 252.98C40.9667 252.713 40.6333 252.58 40.22 252.58ZM36.08 259.56H40.54C40.98 259.56 41.3333 259.42 41.6 259.14C41.88 258.86 42.02 258.527 42.02 258.14C42.02 257.74 41.8733 257.407 41.58 257.14C41.3 256.873 40.9267 256.74 40.46 256.74H36.08V259.56ZM46.6472 254.56H50.2472C51.1405 254.573 51.9005 254.893 52.5272 255.52C53.1539 256.133 53.4672 256.88 53.4672 257.76C53.4672 258.653 53.1539 259.42 52.5272 260.06C51.9005 260.687 51.1405 261 50.2472 261H45.1472V251.14H46.6472V254.56ZM54.9472 261V251.14H56.4472V261H54.9472ZM46.6472 259.56H50.2472C50.7272 259.547 51.1339 259.367 51.4672 259.02C51.8005 258.673 51.9672 258.253 51.9672 257.76C51.9672 257.28 51.7939 256.873 51.4472 256.54C51.1139 256.193 50.7139 256.02 50.2472 256.02H46.6472V259.56ZM67.8398 251.14V261H66.3398V252.58H60.3198V261H58.8198V251.14H67.8398ZM74.7297 261.26C73.183 261.26 71.9097 260.76 70.9097 259.76C69.923 258.747 69.4297 257.513 69.4297 256.06C69.4297 254.593 69.923 253.367 70.9097 252.38C71.8964 251.38 73.1697 250.88 74.7297 250.88C76.263 250.88 77.5164 251.38 78.4897 252.38C79.463 253.367 79.9497 254.593 79.9497 256.06C79.9497 257.513 79.4564 258.747 78.4697 259.76C77.4964 260.76 76.2497 261.26 74.7297 261.26ZM74.7297 259.82C75.823 259.82 76.7164 259.453 77.4097 258.72C78.103 257.987 78.4497 257.1 78.4497 256.06C78.4497 255.007 78.103 254.12 77.4097 253.4C76.7164 252.68 75.823 252.32 74.7297 252.32C73.6097 252.32 72.6964 252.68 71.9897 253.4C71.2964 254.12 70.9497 255.007 70.9497 256.06C70.9497 257.113 71.2964 258.007 71.9897 258.74C72.6964 259.46 73.6097 259.82 74.7297 259.82ZM90.5809 251.14V261H89.0809V252.58H83.8609C83.8609 255.1 83.8343 256.793 83.7809 257.66C83.7543 258.193 83.6809 258.667 83.5609 259.08C83.4543 259.493 83.3009 259.82 83.1009 260.06C82.9009 260.287 82.7076 260.473 82.5209 260.62C82.3476 260.767 82.1209 260.873 81.8409 260.94C81.5743 260.993 81.3609 261.027 81.2009 261.04C81.0543 261.053 80.8609 261.06 80.6209 261.06H80.3609V259.54H80.5609C80.7343 259.54 80.8676 259.54 80.9609 259.54C81.0676 259.527 81.2076 259.487 81.3809 259.42C81.5676 259.353 81.7143 259.26 81.8209 259.14C81.9276 259.007 82.0276 258.813 82.1209 258.56C82.2276 258.307 82.2943 258 82.3209 257.64C82.3343 257.493 82.3609 255.327 82.4009 251.14H90.5809ZM100.582 255.18V251.14H102.082V261H100.582V256.62H94.4823V261H92.9823V251.14H94.4823V255.18H100.582ZM108.81 250.88C110.357 250.88 111.603 251.42 112.55 252.5C113.497 253.58 113.923 254.947 113.83 256.6H105.29C105.357 257.52 105.723 258.287 106.39 258.9C107.057 259.513 107.89 259.82 108.89 259.82C109.623 259.82 110.277 259.653 110.85 259.32C111.423 258.973 111.837 258.513 112.09 257.94H113.65C113.317 258.953 112.717 259.76 111.85 260.36C110.983 260.96 109.977 261.26 108.83 261.26C107.31 261.26 106.077 260.76 105.13 259.76C104.183 258.76 103.71 257.533 103.71 256.08C103.71 254.627 104.19 253.4 105.15 252.4C106.11 251.387 107.33 250.88 108.81 250.88ZM111.09 253.14C110.463 252.593 109.69 252.32 108.77 252.32C107.85 252.32 107.07 252.6 106.43 253.16C105.803 253.707 105.437 254.407 105.33 255.26H112.23C112.097 254.393 111.717 253.687 111.09 253.14ZM123.045 255.18V251.14H124.545V261H123.045V256.62H116.945V261H115.445V251.14H116.945V255.18H123.045ZM131.452 261.26C129.906 261.26 128.632 260.76 127.632 259.76C126.646 258.747 126.152 257.513 126.152 256.06C126.152 254.593 126.646 253.367 127.632 252.38C128.619 251.38 129.892 250.88 131.452 250.88C132.986 250.88 134.239 251.38 135.212 252.38C136.186 253.367 136.672 254.593 136.672 256.06C136.672 257.513 136.179 258.747 135.192 259.76C134.219 260.76 132.972 261.26 131.452 261.26ZM131.452 259.82C132.546 259.82 133.439 259.453 134.132 258.72C134.826 257.987 135.172 257.1 135.172 256.06C135.172 255.007 134.826 254.12 134.132 253.4C133.439 252.68 132.546 252.32 131.452 252.32C130.332 252.32 129.419 252.68 128.712 253.4C128.019 254.12 127.672 255.007 127.672 256.06C127.672 257.113 128.019 258.007 128.712 258.74C129.419 259.46 130.332 259.82 131.452 259.82Z" fill="white"/>
<rect x="0.5" y="0.5" width="375" height="291" rx="39.5" stroke="url(#paint0_linear_67_127)"/>
<defs>
<linearGradient id="paint0_linear_67_127" x1="477" y1="337.5" x2="291.153" y2="481.888" gradientUnits="userSpaceOnUse">
<stop stop-color="white"/>
<stop offset="1" stop-color="#5F29B7"/>
</linearGradient>
</defs>
</svg>
